<svg width="216" height="56" viewBox="0 0 216 56" fill="none" xmlns="http://www.w3.org/2000/svg">
<path d="M2.13 30.64V14.29C2.13 12.25 2.07 11.26 1.86 9.88C3.06 9.94 3.81 9.97 6.3 9.97H12.57C16.26 9.97 19.23 10.99 21.24 12.94C23.43 15.1 24.54 18.25 24.54 22.24C24.54 26.35 23.34 29.65 21.06 31.93C19.05 33.91 16.2 34.93 12.63 34.93H6.3C3.99 34.93 3.15 34.96 1.89 35.02C2.07 33.7 2.13 32.71 2.13 30.64ZM8.07 29.68H12.09C14.04 29.68 15.42 29.17 16.5 28.09C17.73 26.83 18.39 24.82 18.39 22.33C18.39 19.78 17.82 17.92 16.65 16.75C15.6 15.7 14.16 15.22 12 15.22H8.07V29.68ZM27.3734 9.97H33.4634V14.47H27.3734V9.97ZM27.2834 16.63H33.5534C33.3734 17.86 33.3134 19.06 33.3134 21.16V30.4C33.3134 32.02 33.4034 33.64 33.5534 34.93H27.2834C27.4634 33.46 27.5234 32.32 27.5234 30.4V21.16C27.5234 19.21 27.4634 17.98 27.2834 16.63ZM36.0563 29.47L41.9963 28.81C42.2963 30.37 43.3163 31.06 45.3263 31.06C47.1263 31.06 48.1463 30.55 48.1463 29.62C48.1463 29.17 47.9063 28.78 47.4863 28.54C47.0663 28.3 46.6763 28.18 45.0263 27.85C42.7463 27.4 41.5763 27.1 40.5863 26.77C39.1463 26.23 38.1563 25.54 37.5863 24.64C37.1063 23.83 36.8363 22.81 36.8363 21.79C36.8363 18.19 39.8663 16 44.8763 16C47.7263 16 49.8563 16.63 51.2663 17.92C52.2563 18.79 52.7363 19.66 53.2163 21.34L47.4263 21.97C47.2763 20.74 46.5263 20.2 44.9063 20.2C43.3463 20.2 42.3863 20.71 42.3863 21.49C42.3863 22.3 43.0163 22.6 45.9863 23.26C48.9263 23.89 49.8563 24.16 50.9063 24.7C52.8563 25.66 53.7863 27.13 53.7863 29.29C53.7863 30.88 53.2463 32.32 52.2563 33.28C50.8163 34.72 48.3563 35.47 45.1463 35.47C41.3663 35.47 38.6963 34.45 37.2563 32.47C36.6563 31.63 36.3563 30.91 36.0563 29.47ZM62.5852 34.93H56.3752C56.5552 33.52 56.6152 32.26 56.6152 30.4V14.5C56.6152 12.43 56.5552 11.14 56.3752 9.97H62.5852C62.4052 11.29 62.3452 12.37 62.3452 14.5V17.68C62.3452 17.92 62.3152 18.4 62.3152 18.67C64.1152 16.93 66.0052 16.18 68.5552 16.18C70.5952 16.18 72.2152 16.75 73.3252 17.86C74.5252 19.06 75.0352 20.53 75.0352 22.9V30.43C75.0352 32.17 75.1252 33.67 75.2752 34.93H69.0352C69.2152 33.49 69.2752 32.23 69.2752 30.4V24.25C69.2752 23.05 69.1552 22.51 68.7952 22C68.3752 21.46 67.7152 21.19 66.8752 21.19C65.1652 21.19 63.5452 22.33 62.3452 24.31V30.4C62.3452 32.11 62.4052 33.37 62.5852 34.93ZM77.9264 27.4L84.1664 26.8C84.2864 27.88 84.4964 28.42 84.9464 29.02C85.6664 29.92 86.9264 30.43 88.4564 30.43C90.7664 30.43 92.1464 29.41 92.1464 27.73C92.1464 26.8 91.6664 25.99 90.8864 25.63C90.2564 25.33 89.5064 25.12 86.3864 24.4C83.6264 23.8 82.6664 23.44 81.5564 22.66C79.6664 21.34 78.6464 19.33 78.6464 16.9C78.6464 12.28 82.3664 9.37 88.2764 9.37C92.0864 9.37 94.9964 10.54 96.6164 12.79C97.3664 13.78 97.7264 14.68 98.1164 16.39L91.7564 17.08C91.3964 15.13 90.3164 14.32 88.0364 14.32C86.2064 14.32 84.8564 15.31 84.8564 16.69C84.8564 17.53 85.3064 18.16 86.2664 18.61C86.8664 18.88 86.8664 18.88 90.4064 19.6C92.6864 20.08 94.1264 20.59 95.2664 21.31C97.4264 22.66 98.5064 24.67 98.5064 27.43C98.5064 29.68 97.7864 31.6 96.4064 32.95C94.6664 34.63 92.0264 35.5 88.5164 35.5C85.9664 35.5 83.4464 34.96 81.8264 34.03C80.3264 33.19 79.2164 31.9 78.5864 30.19C78.2864 29.47 78.1364 28.78 77.9264 27.4ZM121.957 34.93H116.857C116.707 34.06 116.467 33.16 115.927 31.42L114.097 25.42C113.947 24.91 113.827 24.52 113.767 24.25C113.557 24.94 113.557 25 113.407 25.42L111.577 31.42C111.157 32.74 110.767 34.21 110.647 34.93H105.547C105.337 33.85 105.127 33.04 104.647 31.42L101.287 20.53C100.957 19.48 100.507 18.16 99.9366 16.63H106.387C106.447 17.68 106.627 18.76 106.957 20.17L108.247 25.54C108.397 26.26 108.517 26.74 108.547 26.98C108.907 25.81 108.907 25.81 108.967 25.54L110.647 20.08C111.457 17.26 111.457 17.26 111.577 16.63H115.957C116.047 17.23 116.407 18.67 116.857 20.08L118.597 25.75C118.657 25.96 118.837 26.62 118.957 26.98C119.047 26.53 119.047 26.53 119.227 25.72L120.487 20.41C120.847 18.85 121.057 17.59 121.117 16.63H127.567C127.117 17.77 126.667 19.12 126.217 20.53L122.857 31.42C122.317 33.16 122.137 33.91 121.957 34.93ZM141.354 23.08V22.39C141.354 20.95 140.484 20.29 138.504 20.29C136.584 20.29 135.564 20.92 135.114 22.39L129.384 21.46C129.984 19.69 130.644 18.73 131.904 17.83C133.524 16.69 135.744 16.12 138.654 16.12C140.874 16.12 143.034 16.54 144.204 17.17C146.124 18.22 146.964 19.87 146.964 22.57V30.67C146.964 32.5 147.024 33.58 147.174 34.93H141.354V33.55C139.674 34.84 137.994 35.35 135.534 35.35C133.254 35.35 131.544 34.81 130.344 33.7C129.264 32.71 128.694 31.27 128.694 29.62C128.694 27.73 129.444 26.23 130.884 25.24C132.414 24.16 134.424 23.53 137.124 23.29C138.294 23.17 139.194 23.14 141.354 23.08ZM141.354 27.76V26.92C138.684 26.98 137.394 27.13 136.164 27.52C135.084 27.88 134.424 28.63 134.424 29.5C134.424 30.58 135.324 31.21 136.884 31.21C138.114 31.21 139.464 30.76 140.274 30.07C140.964 29.47 141.354 28.66 141.354 27.76ZM156.51 40.36H150.36C150.51 39.07 150.6 37.57 150.6 35.98V21.34C150.6 19.39 150.54 18.16 150.36 16.63H156.27V17.65C156.27 17.83 156.24 18.07 156.24 18.22C158.04 16.72 159.9 16.09 162.39 16.09C165.03 16.09 167.19 16.87 168.75 18.4C170.34 19.99 171.15 22.36 171.15 25.39C171.15 28.45 170.25 30.94 168.54 32.65C167.01 34.18 164.82 35.02 162.36 35.02C160.95 35.02 159.42 34.72 158.31 34.24C157.53 33.91 157.08 33.58 156.24 32.86C156.24 33.13 156.24 33.52 156.27 33.94V36.01C156.27 37.69 156.33 39.07 156.51 40.36ZM161.04 30.49C162.18 30.49 163.2 30.1 163.98 29.35C164.82 28.54 165.3 27.16 165.3 25.45C165.3 22.39 163.68 20.62 160.86 20.62C158.37 20.62 156.33 22.81 156.33 25.54C156.33 28.36 158.34 30.49 161.04 30.49Z" fill="#332D2D"/>
<path d="M203.125 24.102C204.126 24.9218 204.836 26.0421 205.15 27.297C205.365 28.1158 205.487 28.9562 205.513 29.8023M196.455 24.0055C197.476 23.4304 198.631 23.1363 199.803 23.1532C200.975 23.1701 202.121 23.4975 203.125 24.102C204.668 19.6864 203.506 16.1783 206.518 14.4911C207.289 14.0106 208.18 13.7569 209.088 13.759V13.759C209.42 13.7839 209.751 13.8282 210.077 13.8917C211.746 14.6609 213.175 15.8675 214.213 17.3835M196.455 24.0055C196.428 24.7619 196.645 25.5069 197.075 26.1299C197.757 27.0623 198.628 27.8409 199.631 28.4155C201.359 29.5887 203.453 30.0971 205.527 29.8469C205.451 35.1418 200.511 41.1652 196.767 44.3507C184.051 55.1582 148.578 57.1305 157.422 51.1784C160.006 49.4406 168.309 46.1138 174.288 41.8067C181.278 36.1828 186.926 27.1962 196.469 24.0353L196.455 24.0055Z" stroke="#B4D4A1" stroke-width="3" stroke-linecap="round" stroke-linejoin="round"/>
</svg>
